<svg width="42" height="42" viewBox="0 0 42 42" fill="none" xmlns="http://www.w3.org/2000/svg">
  <path d="M21 13.3438C20.7667 13.3438 20.5333 13.2924 20.3 13.1898C20.0667 13.0871 19.8625 12.9197 19.6875 12.6875C18.8125 11.5208 17.8208 10.5729 16.7125 9.84375C15.6042 9.11458 14.4083 8.75 13.125 8.75C11.4625 8.75 10.0258 9.32633 8.81476 10.479C7.60375 11.6317 6.99884 13.0818 7 14.8295C7 15.7045 7.168 16.5941 7.504 17.4982C7.84 18.4024 8.43734 19.4308 9.296 20.5835C10.1547 21.7362 11.3213 23.0487 12.796 24.521C14.2707 25.9933 16.1455 27.7363 18.4205 29.75L21 32.025L23.6688 29.7063C25.0688 28.4813 26.593 27.0958 28.2415 25.55C29.89 24.0042 31.2824 22.4875 32.4188 21H30.3188C29.8229 21 29.4076 20.832 29.0728 20.496C28.7379 20.16 28.5699 19.7447 28.5688 19.25C28.5676 18.7553 28.7356 18.34 29.0728 18.004C29.4099 17.668 29.8253 17.5 30.3188 17.5H36.75C37.2458 17.5 37.6618 17.668 37.9978 18.004C38.3338 18.34 38.5012 18.7553 38.5 19.25V25.6812C38.5 26.1771 38.332 26.5854 37.996 26.9062C37.66 27.2271 37.2447 27.3875 36.75 27.3875C36.2553 27.3875 35.84 27.2195 35.504 26.8835C35.168 26.5475 35 26.1322 35 25.6375V23.4062C33.8042 24.9229 32.3604 26.4688 30.6688 28.0437C28.9771 29.6187 27.4167 31.0479 25.9875 32.3313L23.3188 34.6938C22.9979 34.9854 22.6333 35.2042 22.225 35.35C21.8167 35.4958 21.4083 35.5688 21 35.5688C20.5917 35.5688 20.1833 35.4958 19.775 35.35C19.3667 35.2042 19.0021 34.9708 18.6813 34.65L15.4438 31.7625C13.3438 29.8667 11.5424 28.175 10.0398 26.6875C8.53709 25.2 7.2975 23.8 6.321 22.4875C5.3445 21.175 4.62992 19.9062 4.17725 18.6813C3.72459 17.4563 3.49884 16.1729 3.5 14.8313C3.5 12.0896 4.41875 9.80758 6.25625 7.98525C8.09375 6.16292 10.3833 5.25117 13.125 5.25C14.6417 5.25 16.0854 5.57083 17.4563 6.2125C18.8271 6.85417 20.0083 7.75833 21 8.925C21.9917 7.75833 23.1729 6.85417 24.5438 6.2125C25.9146 5.57083 27.3583 5.25 28.875 5.25C29.9542 5.25 31.0042 5.418 32.025 5.754C33.0458 6.09 33.9792 6.59283 34.825 7.2625C35.7583 7.99167 36.5604 8.84508 37.2313 9.82275C37.9021 10.8004 38.2375 11.8866 38.2375 13.0812C38.2375 13.4896 38.0847 13.8326 37.779 14.1102C37.4733 14.3879 37.1158 14.5262 36.7063 14.525C36.2104 14.525 35.7805 14.3646 35.4165 14.0437C35.0525 13.7229 34.797 13.3146 34.65 12.8187C34.2125 11.3312 33.3888 10.2812 32.179 9.66875C30.9692 9.05625 29.8678 8.75 28.875 8.75C27.475 8.75 26.25 9.11458 25.2 9.84375C24.15 10.5729 23.1875 11.5208 22.3125 12.6875C22.1375 12.9208 21.9333 13.0888 21.7 13.1915C21.4667 13.2942 21.2333 13.3449 21 13.3438Z" fill="currentColor"/>
</svg>
