<svg width="34" height="39" viewBox="0 0 34 39" fill="none" xmlns="http://www.w3.org/2000/svg">
  <path d="M9.10714 0C10.1165 0 10.9286 0.815039 10.9286 1.82812V4.875H23.0714V1.82812C23.0714 0.815039 23.8835 0 24.8929 0C25.9022 0 26.7143 0.815039 26.7143 1.82812V4.875H29.1429C31.8219 4.875 34 7.06113 34 9.75V31.6875C34 34.3764 31.8219 36.5625 29.1429 36.5625H4.85714C2.17813 36.5625 0 34.3764 0 31.6875V9.75C0 7.06113 2.17813 4.875 4.85714 4.875H7.28571V1.82812C7.28571 0.815039 8.09777 0 9.10714 0ZM9.10714 8.53125H4.85714C4.18929 8.53125 3.64286 9.07969 3.64286 9.75V13.4062H30.3571V9.75C30.3571 9.07969 29.8107 8.53125 29.1429 8.53125H9.10714ZM3.64286 17.0625V31.6875C3.64286 32.3578 4.18929 32.9062 4.85714 32.9062H29.1429C29.8107 32.9062 30.3571 32.3578 30.3571 31.6875V17.0625H3.64286Z" fill="currentColor"/>
</svg>
