<svg width="25" height="25" viewBox="0 0 25 25" fill="none" xmlns="http://www.w3.org/2000/svg">
  <path d="M12.4999 15.0521L20.1562 7.39583C20.4166 7.13542 20.7204 7.00937 21.0676 7.01771C21.4149 7.02604 21.7187 7.16076 21.9791 7.42188C22.2395 7.68299 22.3697 7.98681 22.3697 8.33333C22.3697 8.67986 22.2395 8.98368 21.9791 9.24479L13.9843 17.2656C13.776 17.474 13.5416 17.6302 13.2812 17.7344C13.0208 17.8385 12.7603 17.8906 12.4999 17.8906C12.2395 17.8906 11.9791 17.8385 11.7187 17.7344C11.4583 17.6302 11.2239 17.474 11.0156 17.2656L2.99472 9.24479C2.73431 8.98438 2.60827 8.67604 2.6166 8.31979C2.62493 7.96354 2.75965 7.65556 3.02077 7.39583C3.28188 7.13611 3.5857 7.0059 3.93222 7.00521C4.27875 7.00451 4.58257 7.13472 4.84368 7.39583L12.4999 15.0521Z" fill="currentColor"/>
</svg>
