<svg width="42" height="42" viewBox="0 0 42 42" fill="none" xmlns="http://www.w3.org/2000/svg">
  <path d="M14 29.75V26.25H17.8062C17.6604 26.8333 17.5659 27.4167 17.5227 28C17.4796 28.5833 17.4866 29.1667 17.5437 29.75H14ZM14 38.5C11.5792 38.5 9.51592 37.6466 7.81025 35.9398C6.10458 34.2329 5.25117 32.1697 5.25 29.75V14C4.2875 14 3.46383 13.6576 2.779 12.9727C2.09417 12.2879 1.75117 11.4637 1.75 10.5V7C1.75 6.0375 2.093 5.21383 2.779 4.529C3.465 3.84417 4.28867 3.50117 5.25 3.5H22.75C23.7125 3.5 24.5368 3.843 25.2227 4.529C25.9088 5.215 26.2512 6.03867 26.25 7V10.5C26.25 11.4625 25.9076 12.2867 25.2227 12.9727C24.5379 13.6588 23.7137 14.0012 22.75 14V19.2937C22.05 19.7312 21.4083 20.2417 20.825 20.825C20.2417 21.4083 19.7312 22.05 19.2937 22.75H14V19.25H19.25V14H8.75V29.75C8.75 31.2083 9.26042 32.4479 10.2812 33.4688C11.3021 34.4896 12.5417 35 14 35C14.875 35 15.6701 34.8104 16.3853 34.4312C17.1004 34.0521 17.7053 33.5271 18.2 32.8562C18.4333 33.4396 18.6958 33.9938 18.9875 34.5188C19.2792 35.0438 19.6292 35.5542 20.0375 36.05C19.25 36.8083 18.3458 37.4062 17.325 37.8438C16.3042 38.2812 15.1958 38.5 14 38.5ZM5.25 10.5H22.75V7H5.25V10.5ZM28.875 33.25C30.1 33.25 31.1354 32.8271 31.9812 31.9812C32.8271 31.1354 33.25 30.1 33.25 28.875C33.25 27.65 32.8271 26.6146 31.9812 25.7688C31.1354 24.9229 30.1 24.5 28.875 24.5C27.65 24.5 26.6146 24.9229 25.7688 25.7688C24.9229 26.6146 24.5 27.65 24.5 28.875C24.5 30.1 24.9229 31.1354 25.7688 31.9812C26.6146 32.8271 27.65 33.25 28.875 33.25ZM37.8 40.25L33.075 35.525C32.4333 35.9333 31.7625 36.2396 31.0625 36.4438C30.3625 36.6479 29.6333 36.75 28.875 36.75C26.6875 36.75 24.8284 35.9847 23.2977 34.454C21.7671 32.9233 21.0012 31.0637 21 28.875C20.9988 26.6863 21.7647 24.8272 23.2977 23.2977C24.8307 21.7682 26.6898 21.0023 28.875 21C31.0602 20.9977 32.9198 21.7636 34.454 23.2977C35.9882 24.8319 36.7535 26.691 36.75 28.875C36.75 29.6333 36.6479 30.3625 36.4438 31.0625C36.2396 31.7625 35.9333 32.4333 35.525 33.075L40.25 37.8L37.8 40.25Z" fill="currentColor"/>
</svg>
