<svg width="34" height="34" viewBox="0 0 34 34" fill="none" xmlns="http://www.w3.org/2000/svg">
  <g clip-path="url(#clip0_356_623)">
    <path d="M18.4472 0.571191C17.6304 -0.18584 16.3687 -0.18584 15.5586 0.571191L0.683553 14.3837C0.046053 14.9813 -0.166447 15.9044 0.152303 16.7146C0.471053 17.5247 1.24801 18.0626 2.12457 18.0626H3.18707V29.7501C3.18707 32.0942 5.09293 34.0001 7.43707 34.0001H26.5621C28.9062 34.0001 30.8121 32.0942 30.8121 29.7501V18.0626H31.8746C32.7511 18.0626 33.5347 17.5247 33.8535 16.7146C34.1722 15.9044 33.9597 14.9747 33.3222 14.3837L18.4472 0.571191ZM15.9371 21.2501H18.0621C19.8218 21.2501 21.2496 22.6778 21.2496 24.4376V30.8126H12.7496V24.4376C12.7496 22.6778 14.1773 21.2501 15.9371 21.2501Z" fill="currentColor"/>
  </g>
  <defs>
    <clipPath id="clip0_356_623">
      <rect width="34" height="34" fill="white"/>
    </clipPath>
  </defs>
</svg>
