<svg width="31" height="35" viewBox="0 0 31 35" fill="none" xmlns="http://www.w3.org/2000/svg">
  <g clip-path="url(#clip0_356_590)">
    <path d="M9.96428 8.75C9.96428 7.2996 10.5475 5.9086 11.5857 4.88301C12.6238 3.85742 14.0318 3.28125 15.5 3.28125C16.9682 3.28125 18.3762 3.85742 19.4143 4.88301C20.4525 5.9086 21.0357 7.2996 21.0357 8.75C21.0357 10.2004 20.4525 11.5914 19.4143 12.617C18.3762 13.6426 16.9682 14.2188 15.5 14.2188C14.0318 14.2188 12.6238 13.6426 11.5857 12.617C10.5475 11.5914 9.96428 10.2004 9.96428 8.75ZM24.3571 8.75C24.3571 6.42936 23.424 4.20376 21.7629 2.56282C20.1019 0.921872 17.8491 0 15.5 0C13.1509 0 10.8981 0.921872 9.23705 2.56282C7.57602 4.20376 6.64286 6.42936 6.64286 8.75C6.64286 11.0706 7.57602 13.2962 9.23705 14.9372C10.8981 16.5781 13.1509 17.5 15.5 17.5C17.8491 17.5 20.1019 16.5781 21.7629 14.9372C23.424 13.2962 24.3571 11.0706 24.3571 8.75ZM3.32143 32.8125C3.32143 27.9795 7.28638 24.0625 12.1786 24.0625H18.8214C23.7136 24.0625 27.6786 27.9795 27.6786 32.8125V33.3594C27.6786 34.2686 28.419 35 29.3393 35C30.2596 35 31 34.2686 31 33.3594V32.8125C31 26.168 25.5473 20.7812 18.8214 20.7812H12.1786C5.45268 20.7812 0 26.168 0 32.8125V33.3594C0 34.2686 0.740402 35 1.66071 35C2.58103 35 3.32143 34.2686 3.32143 33.3594V32.8125Z" fill="currentColor"/>
  </g>
  <defs>
    <clipPath id="clip0_356_590">
      <rect width="31" height="35" fill="white"/>
    </clipPath>
  </defs>
</svg>
