<svg width="41" height="41" viewBox="0 0 41 41" fill="none" xmlns="http://www.w3.org/2000/svg">
  <path d="M5.125 8.96875C4.42031 8.96875 3.84375 9.54531 3.84375 10.25V30.75C3.84375 31.4547 4.42031 32.0312 5.125 32.0312H35.875C36.5797 32.0312 37.1562 31.4547 37.1562 30.75V10.25C37.1562 9.54531 36.5797 8.96875 35.875 8.96875H5.125ZM0 10.25C0 7.42324 2.29824 5.125 5.125 5.125H35.875C38.7018 5.125 41 7.42324 41 10.25V30.75C41 33.5768 38.7018 35.875 35.875 35.875H5.125C2.29824 35.875 0 33.5768 0 30.75V10.25ZM12.8125 25.625C12.8125 26.3046 12.5425 26.9564 12.062 27.437C11.5814 27.9175 10.9296 28.1875 10.25 28.1875C9.57038 28.1875 8.9186 27.9175 8.43804 27.437C7.95748 26.9564 7.6875 26.3046 7.6875 25.625C7.6875 24.9454 7.95748 24.2936 8.43804 23.813C8.9186 23.3325 9.57038 23.0625 10.25 23.0625C10.9296 23.0625 11.5814 23.3325 12.062 23.813C12.5425 24.2936 12.8125 24.9454 12.8125 25.625ZM10.25 17.9375C9.57038 17.9375 8.9186 17.6675 8.43804 17.187C7.95748 16.7064 7.6875 16.0546 7.6875 15.375C7.6875 14.6954 7.95748 14.0436 8.43804 13.563C8.9186 13.0825 9.57038 12.8125 10.25 12.8125C10.9296 12.8125 11.5814 13.0825 12.062 13.563C12.5425 14.0436 12.8125 14.6954 12.8125 15.375C12.8125 16.0546 12.5425 16.7064 12.062 17.187C11.5814 17.6675 10.9296 17.9375 10.25 17.9375ZM18.5781 13.4531H31.3906C32.4557 13.4531 33.3125 14.31 33.3125 15.375C33.3125 16.44 32.4557 17.2969 31.3906 17.2969H18.5781C17.5131 17.2969 16.6562 16.44 16.6562 15.375C16.6562 14.31 17.5131 13.4531 18.5781 13.4531ZM18.5781 23.7031H31.3906C32.4557 23.7031 33.3125 24.56 33.3125 25.625C33.3125 26.69 32.4557 27.5469 31.3906 27.5469H18.5781C17.5131 27.5469 16.6562 26.69 16.6562 25.625C16.6562 24.56 17.5131 23.7031 18.5781 23.7031Z" fill="currentColor"/>
</svg>
